<mxfile host="65bd71144e">
    <diagram id="bhaMuW99Q1BzDTtcfRXp" name="Page-1">
        <mxGraphModel dx="1344" dy="785" grid="1" gridSize="10" guides="1" tooltips="1" connect="1" arrows="1" fold="1" page="1" pageScale="1" pageWidth="1169" pageHeight="827" math="0" shadow="0">
            <root>
                <mxCell id="0"/>
                <mxCell id="1" parent="0"/>
                <mxCell id="27" value="Kafka集群--A" style="rounded=0;whiteSpace=wrap;html=1;absoluteArcSize=1;arcSize=14;strokeWidth=1;fillColor=#cdeb8b;strokeColor=#36393d;labelPosition=center;verticalLabelPosition=top;align=center;verticalAlign=bottom;" vertex="1" parent="1">
                    <mxGeometry x="320" y="40" width="160" height="80" as="geometry"/>
                </mxCell>
                <mxCell id="32" value="Zookeeper" style="rounded=0;whiteSpace=wrap;html=1;absoluteArcSize=1;arcSize=14;strokeWidth=1;fillColor=#dae8fc;strokeColor=#6c8ebf;" vertex="1" parent="1">
                    <mxGeometry x="330" y="50" width="140" height="20" as="geometry"/>
                </mxCell>
                <mxCell id="33" value="Kafka-Brokers" style="rounded=0;whiteSpace=wrap;html=1;absoluteArcSize=1;arcSize=14;strokeWidth=1;fillColor=#ffe6cc;strokeColor=#d79b00;" vertex="1" parent="1">
                    <mxGeometry x="330" y="90" width="140" height="20" as="geometry"/>
                </mxCell>
                <mxCell id="47" style="edgeStyle=orthogonalEdgeStyle;html=1;entryX=1;entryY=0.25;entryDx=0;entryDy=0;exitX=1;exitY=0.75;exitDx=0;exitDy=0;" edge="1" parent="1" source="36" target="27">
                    <mxGeometry relative="1" as="geometry">
                        <Array as="points">
                            <mxPoint x="560" y="260"/>
                            <mxPoint x="560" y="60"/>
                        </Array>
                    </mxGeometry>
                </mxCell>
                <mxCell id="51" value="2、网关发现是A集群的KafkaUser，&lt;br&gt;网关将请求转发到A集群" style="edgeLabel;html=1;align=center;verticalAlign=middle;resizable=0;points=[];" vertex="1" connectable="0" parent="47">
                    <mxGeometry x="-0.0444" y="-1" relative="1" as="geometry">
                        <mxPoint x="49" y="72" as="offset"/>
                    </mxGeometry>
                </mxCell>
                <mxCell id="55" style="edgeStyle=orthogonalEdgeStyle;html=1;exitX=0;exitY=0.5;exitDx=0;exitDy=0;entryX=1;entryY=0.5;entryDx=0;entryDy=0;" edge="1" parent="1" source="36" target="42">
                    <mxGeometry relative="1" as="geometry"/>
                </mxCell>
                <mxCell id="56" value="4、网关返回Topic元信息" style="edgeLabel;html=1;align=center;verticalAlign=middle;resizable=0;points=[];" vertex="1" connectable="0" parent="55">
                    <mxGeometry x="0.2125" relative="1" as="geometry">
                        <mxPoint x="17" y="-10" as="offset"/>
                    </mxGeometry>
                </mxCell>
                <mxCell id="36" value="Kafka网关" style="rounded=0;whiteSpace=wrap;html=1;absoluteArcSize=1;arcSize=14;strokeWidth=1;fillColor=#cdeb8b;strokeColor=#36393d;labelPosition=center;verticalLabelPosition=bottom;align=center;verticalAlign=top;" vertex="1" parent="1">
                    <mxGeometry x="320" y="200" width="160" height="80" as="geometry"/>
                </mxCell>
                <mxCell id="37" value="Zookeeper" style="rounded=0;whiteSpace=wrap;html=1;absoluteArcSize=1;arcSize=14;strokeWidth=1;fillColor=#dae8fc;strokeColor=#6c8ebf;" vertex="1" parent="1">
                    <mxGeometry x="330" y="210" width="140" height="20" as="geometry"/>
                </mxCell>
                <mxCell id="38" value="Kafka-Gateways" style="rounded=0;whiteSpace=wrap;html=1;absoluteArcSize=1;arcSize=14;strokeWidth=1;fillColor=#ffe6cc;strokeColor=#d79b00;" vertex="1" parent="1">
                    <mxGeometry x="330" y="250" width="140" height="20" as="geometry"/>
                </mxCell>
                <mxCell id="39" value="Kafka集群--B" style="rounded=0;whiteSpace=wrap;html=1;absoluteArcSize=1;arcSize=14;strokeWidth=1;fillColor=#cdeb8b;strokeColor=#36393d;labelPosition=center;verticalLabelPosition=bottom;align=center;verticalAlign=top;" vertex="1" parent="1">
                    <mxGeometry x="320" y="360" width="160" height="80" as="geometry"/>
                </mxCell>
                <mxCell id="40" value="Zookeeper" style="rounded=0;whiteSpace=wrap;html=1;absoluteArcSize=1;arcSize=14;strokeWidth=1;fillColor=#dae8fc;strokeColor=#6c8ebf;" vertex="1" parent="1">
                    <mxGeometry x="330" y="370" width="140" height="20" as="geometry"/>
                </mxCell>
                <mxCell id="41" value="Kafka-Brokers" style="rounded=0;whiteSpace=wrap;html=1;absoluteArcSize=1;arcSize=14;strokeWidth=1;fillColor=#ffe6cc;strokeColor=#d79b00;" vertex="1" parent="1">
                    <mxGeometry x="330" y="410" width="140" height="20" as="geometry"/>
                </mxCell>
                <mxCell id="57" style="html=1;entryX=0;entryY=0.5;entryDx=0;entryDy=0;strokeColor=default;startArrow=classic;startFill=1;" edge="1" parent="1" source="42" target="27">
                    <mxGeometry relative="1" as="geometry"/>
                </mxCell>
                <mxCell id="58" value="5、通过Topic元信息，&lt;br&gt;客户端直接访问A集群进行生产消费" style="edgeLabel;html=1;align=center;verticalAlign=middle;resizable=0;points=[];" vertex="1" connectable="0" parent="57">
                    <mxGeometry x="-0.0724" y="1" relative="1" as="geometry">
                        <mxPoint x="-6" as="offset"/>
                    </mxGeometry>
                </mxCell>
                <mxCell id="42" value="Kafka-Client" style="rounded=0;whiteSpace=wrap;html=1;absoluteArcSize=1;arcSize=14;strokeWidth=1;fillColor=#ffe6cc;strokeColor=#d79b00;" vertex="1" parent="1">
                    <mxGeometry x="40" y="220" width="120" height="40" as="geometry"/>
                </mxCell>
                <mxCell id="48" style="html=1;entryX=0;entryY=0.75;entryDx=0;entryDy=0;exitX=0.5;exitY=1;exitDx=0;exitDy=0;edgeStyle=orthogonalEdgeStyle;" edge="1" parent="1" source="42" target="36">
                    <mxGeometry relative="1" as="geometry">
                        <mxPoint x="490" y="250" as="sourcePoint"/>
                        <mxPoint x="490" y="90" as="targetPoint"/>
                    </mxGeometry>
                </mxCell>
                <mxCell id="50" value="1、请求Topic元信息" style="edgeLabel;html=1;align=center;verticalAlign=middle;resizable=0;points=[];" vertex="1" connectable="0" parent="48">
                    <mxGeometry x="-0.3373" y="-1" relative="1" as="geometry">
                        <mxPoint x="17" y="7" as="offset"/>
                    </mxGeometry>
                </mxCell>
                <mxCell id="49" style="edgeStyle=orthogonalEdgeStyle;html=1;entryX=1;entryY=0.25;entryDx=0;entryDy=0;exitX=1;exitY=0.75;exitDx=0;exitDy=0;" edge="1" parent="1" source="27" target="36">
                    <mxGeometry relative="1" as="geometry">
                        <mxPoint x="640" y="60" as="sourcePoint"/>
                        <mxPoint x="490" y="70" as="targetPoint"/>
                        <Array as="points">
                            <mxPoint x="520" y="100"/>
                            <mxPoint x="520" y="220"/>
                        </Array>
                    </mxGeometry>
                </mxCell>
                <mxCell id="52" value="3、A集群返回&lt;br&gt;Topic元信息给网关" style="edgeLabel;html=1;align=center;verticalAlign=middle;resizable=0;points=[];" vertex="1" connectable="0" parent="49">
                    <mxGeometry x="-0.03" y="-1" relative="1" as="geometry">
                        <mxPoint x="-19" y="3" as="offset"/>
                    </mxGeometry>
                </mxCell>
            </root>
        </mxGraphModel>
    </diagram>
</mxfile>